<svg width="38" height="33" viewBox="0 0 38 33" fill="none" xmlns="http://www.w3.org/2000/svg">
<path d="M13.7715 24.02L13.4715 31.79L17.4815 26.9L13.7715 24.02Z" fill="white"/>
<path d="M35.6315 0.079995C29.2215 2.71 8.55155 11.27 0.73155 14.54C0.505415 14.6359 0.31415 14.7988 0.183584 15.0069C0.0530173 15.2149 -0.010562 15.458 0.00143196 15.7034C0.0134259 15.9487 0.100414 16.1844 0.250652 16.3788C0.40089 16.5731 0.607139 16.7166 0.841548 16.79L9.84155 19.59L29.9515 7.38999C29.9768 7.37774 30.0055 7.3747 30.0327 7.38141C30.06 7.38812 30.084 7.40416 30.1006 7.42674C30.1172 7.44932 30.1254 7.47701 30.1238 7.505C30.1221 7.533 30.1107 7.55953 30.0915 7.57999L14.6916 22.2C14.6916 22.2 24.1416 29.12 28.6315 32.39C28.8845 32.5769 29.1809 32.6962 29.4927 32.7366C29.8046 32.7771 30.1216 32.7374 30.4139 32.6213C30.7061 32.5052 30.964 32.3165 31.163 32.0731C31.3621 31.8297 31.4958 31.5395 31.5515 31.23C32.8415 24.37 36.0616 7.22999 37.1716 1.34999C37.2091 1.14965 37.1922 0.942898 37.1227 0.751279C37.0532 0.55966 36.9336 0.390182 36.7764 0.260495C36.6191 0.130808 36.43 0.0456571 36.2286 0.0139111C36.0273 -0.017835 35.8211 0.00498592 35.6315 0.079995Z" fill="white"/>
</svg>
