<svg width="34" height="28" viewBox="0 0 34 28" fill="none" xmlns="http://www.w3.org/2000/svg">
<path d="M33.95 3.21073C32.6756 3.7614 31.3284 4.12515 29.95 4.29073C31.4006 3.44111 32.4893 2.08912 33.01 0.490727C31.6419 1.29379 30.1473 1.8585 28.59 2.16073C27.9339 1.47516 27.1452 0.930149 26.2719 0.558829C25.3986 0.187509 24.459 -0.00237044 23.51 0.000727281C22.5997 -0.0124902 21.6958 0.154569 20.8503 0.492278C20.0049 0.829986 19.2346 1.33167 18.5839 1.96841C17.9332 2.60515 17.415 3.36437 17.059 4.20231C16.7031 5.04025 16.5165 5.94035 16.51 6.85073C16.5083 7.37601 16.5687 7.89964 16.69 8.41073C13.9321 8.27863 11.232 7.5738 8.76139 6.3411C6.29082 5.10839 4.10395 3.37482 2.34 1.25073C1.72258 2.29181 1.39781 3.48033 1.4 4.69073C1.40192 5.82506 1.68633 6.94106 2.22755 7.93795C2.76877 8.93484 3.54976 9.78125 4.5 10.4007C3.39437 10.362 2.31275 10.0677 1.34 9.54073V9.63073C1.34123 10.4794 1.50061 11.3204 1.81 12.1107C2.24694 13.1889 2.94572 14.1412 3.84316 14.8815C4.74059 15.6218 5.80839 16.1268 6.95 16.3507C6.34899 16.5067 5.73091 16.5873 5.11 16.5907C4.67027 16.5876 4.23177 16.5441 3.8 16.4607C4.2612 17.827 5.13312 19.0176 6.29657 19.8696C7.46002 20.7216 8.8582 21.1935 10.3 21.2207C7.8263 23.1328 4.78654 24.1672 1.66 24.1607C1.10509 24.1632 0.550599 24.1298 0 24.0607C3.19186 26.0802 6.89296 27.1485 10.67 27.1407C15.1774 27.2312 19.5752 25.7466 23.1055 22.9428C26.6358 20.139 29.0776 16.1915 30.01 11.7807C30.3213 10.4225 30.4823 9.03415 30.49 7.64073C30.49 7.35073 30.49 7.05073 30.49 6.76073C31.8439 5.79101 33.0154 4.58911 33.95 3.21073Z" fill="white"/>
</svg>
